<svg width="70" height="70" viewBox="0 0 70 70" fill="none" xmlns="http://www.w3.org/2000/svg">
<circle cx="35" cy="35" r="35" fill="white"/>
<rect width="46.6667" height="46.6667" transform="translate(12 12)" fill="white"/>
<path d="M49.7553 24.9868C51.7581 27.1141 52.8334 29.4999 52.8334 33.3674C52.8334 40.1729 48.0559 46.2727 41.1084 49.2885L39.372 46.6091C45.8567 43.1013 47.1245 38.5493 47.6301 35.6793C46.5859 36.2199 45.2189 36.4085 43.8792 36.2841C40.3714 35.9593 37.6064 33.0796 37.6064 29.4999C37.6064 27.6949 38.3235 25.9639 39.5997 24.6876C40.876 23.4113 42.6071 22.6943 44.412 22.6943C46.4984 22.6943 48.4934 23.6471 49.7553 24.9868ZM30.3109 24.9868C32.3137 27.1141 33.3889 29.4999 33.3889 33.3674C33.3889 40.1729 28.6114 46.2727 21.6639 49.2885L19.9276 46.6091C26.4123 43.1013 27.6801 38.5493 28.1856 35.6793C27.1414 36.2199 25.7745 36.4085 24.4348 36.2841C20.927 35.9593 18.1639 33.0796 18.1639 29.4999C18.1639 27.6949 18.881 25.9639 20.1572 24.6876C21.4335 23.4113 23.1646 22.6943 24.9695 22.6943C27.0559 22.6943 29.0509 23.6471 30.3128 24.9868H30.3109Z" fill="black"/>
</svg>
